<mxfile host="app.diagrams.net" agent="Mozilla/5.0 (Macintosh; Intel Mac OS X 10_15_7) AppleWebKit/537.36 (KHTML, like Gecko) Chrome/139.0.0.0 Safari/537.36" version="28.0.7">
  <diagram name="第 1 页" id="DzkXhJi500Q4dQpl3hPg">
    <mxGraphModel dx="1140" dy="759" grid="1" gridSize="10" guides="1" tooltips="1" connect="1" arrows="1" fold="1" page="1" pageScale="1" pageWidth="827" pageHeight="1169" math="0" shadow="0">
      <root>
        <mxCell id="0" />
        <mxCell id="1" parent="0" />
        <mxCell id="30qc2G9ksl6MNoaZRsh0-7" value="smartdns:&lt;div&gt;192.168.2.1:53&lt;/div&gt;" style="rounded=1;whiteSpace=wrap;html=1;" parent="1" vertex="1">
          <mxGeometry x="670" y="30" width="120" height="60" as="geometry" />
        </mxCell>
        <mxCell id="30qc2G9ksl6MNoaZRsh0-10" value="&lt;div&gt;AliDNS/TencentDNS/...&lt;/div&gt;" style="rounded=1;whiteSpace=wrap;html=1;" parent="1" vertex="1">
          <mxGeometry x="900" y="30" width="150" height="60" as="geometry" />
        </mxCell>
        <mxCell id="30qc2G9ksl6MNoaZRsh0-15" value="mihomo DNS: fakeip&lt;div&gt;192.168.2.1:7853&lt;/div&gt;" style="rounded=1;whiteSpace=wrap;html=1;" parent="1" vertex="1">
          <mxGeometry x="720" y="170" width="150" height="60" as="geometry" />
        </mxCell>
        <mxCell id="MLj-OultrkclzXc-_WGL-9" style="edgeStyle=orthogonalEdgeStyle;rounded=0;orthogonalLoop=1;jettySize=auto;html=1;entryX=0;entryY=0.5;entryDx=0;entryDy=0;" edge="1" parent="1" source="MLj-OultrkclzXc-_WGL-1" target="MLj-OultrkclzXc-_WGL-3">
          <mxGeometry relative="1" as="geometry" />
        </mxCell>
        <mxCell id="MLj-OultrkclzXc-_WGL-10" value="primrary" style="edgeLabel;html=1;align=center;verticalAlign=middle;resizable=0;points=[];" vertex="1" connectable="0" parent="MLj-OultrkclzXc-_WGL-9">
          <mxGeometry x="0.0441" y="1" relative="1" as="geometry">
            <mxPoint as="offset" />
          </mxGeometry>
        </mxCell>
        <mxCell id="MLj-OultrkclzXc-_WGL-1" value="devices DNS" style="rounded=0;whiteSpace=wrap;html=1;" vertex="1" parent="1">
          <mxGeometry x="40" y="25" width="90" height="50" as="geometry" />
        </mxCell>
        <mxCell id="MLj-OultrkclzXc-_WGL-3" value="AdguardHome&lt;div&gt;192.168.2.200:53&lt;/div&gt;" style="rounded=1;whiteSpace=wrap;html=1;" vertex="1" parent="1">
          <mxGeometry x="200" y="180" width="110" height="60" as="geometry" />
        </mxCell>
        <mxCell id="MLj-OultrkclzXc-_WGL-6" style="edgeStyle=orthogonalEdgeStyle;rounded=0;orthogonalLoop=1;jettySize=auto;html=1;entryX=0;entryY=0.5;entryDx=0;entryDy=0;" edge="1" parent="1" source="30qc2G9ksl6MNoaZRsh0-7" target="30qc2G9ksl6MNoaZRsh0-10">
          <mxGeometry relative="1" as="geometry" />
        </mxCell>
        <mxCell id="MLj-OultrkclzXc-_WGL-7" value="upstream" style="edgeLabel;html=1;align=center;verticalAlign=middle;resizable=0;points=[];" vertex="1" connectable="0" parent="MLj-OultrkclzXc-_WGL-6">
          <mxGeometry x="-0.0486" relative="1" as="geometry">
            <mxPoint as="offset" />
          </mxGeometry>
        </mxCell>
        <mxCell id="MLj-OultrkclzXc-_WGL-17" style="edgeStyle=orthogonalEdgeStyle;rounded=0;orthogonalLoop=1;jettySize=auto;html=1;entryX=0;entryY=0.5;entryDx=0;entryDy=0;" edge="1" parent="1" source="MLj-OultrkclzXc-_WGL-8" target="30qc2G9ksl6MNoaZRsh0-7">
          <mxGeometry relative="1" as="geometry" />
        </mxCell>
        <mxCell id="MLj-OultrkclzXc-_WGL-18" value="domestic" style="edgeLabel;html=1;align=center;verticalAlign=middle;resizable=0;points=[];" vertex="1" connectable="0" parent="MLj-OultrkclzXc-_WGL-17">
          <mxGeometry x="0.0872" y="2" relative="1" as="geometry">
            <mxPoint as="offset" />
          </mxGeometry>
        </mxCell>
        <mxCell id="MLj-OultrkclzXc-_WGL-20" style="edgeStyle=orthogonalEdgeStyle;rounded=0;orthogonalLoop=1;jettySize=auto;html=1;entryX=0;entryY=0.5;entryDx=0;entryDy=0;" edge="1" parent="1" source="MLj-OultrkclzXc-_WGL-8" target="30qc2G9ksl6MNoaZRsh0-15">
          <mxGeometry relative="1" as="geometry" />
        </mxCell>
        <mxCell id="MLj-OultrkclzXc-_WGL-21" value="fallback" style="edgeLabel;html=1;align=center;verticalAlign=middle;resizable=0;points=[];" vertex="1" connectable="0" parent="MLj-OultrkclzXc-_WGL-20">
          <mxGeometry x="0.1999" y="1" relative="1" as="geometry">
            <mxPoint as="offset" />
          </mxGeometry>
        </mxCell>
        <mxCell id="MLj-OultrkclzXc-_WGL-8" value="dae hijack DNS&lt;div&gt;bind: br-lan,wan,WireGuard&lt;/div&gt;" style="rounded=1;whiteSpace=wrap;html=1;" vertex="1" parent="1">
          <mxGeometry x="374" y="170" width="160" height="60" as="geometry" />
        </mxCell>
        <mxCell id="MLj-OultrkclzXc-_WGL-13" style="edgeStyle=orthogonalEdgeStyle;rounded=0;orthogonalLoop=1;jettySize=auto;html=1;entryX=-0.004;entryY=0.615;entryDx=0;entryDy=0;entryPerimeter=0;" edge="1" parent="1" source="MLj-OultrkclzXc-_WGL-3" target="MLj-OultrkclzXc-_WGL-8">
          <mxGeometry relative="1" as="geometry" />
        </mxCell>
        <mxCell id="MLj-OultrkclzXc-_WGL-14" value="upstream" style="edgeLabel;html=1;align=center;verticalAlign=middle;resizable=0;points=[];" vertex="1" connectable="0" parent="MLj-OultrkclzXc-_WGL-13">
          <mxGeometry x="0.0391" y="-1" relative="1" as="geometry">
            <mxPoint as="offset" />
          </mxGeometry>
        </mxCell>
        <mxCell id="MLj-OultrkclzXc-_WGL-15" style="edgeStyle=orthogonalEdgeStyle;rounded=0;orthogonalLoop=1;jettySize=auto;html=1;entryX=0.461;entryY=0.048;entryDx=0;entryDy=0;entryPerimeter=0;" edge="1" parent="1" source="MLj-OultrkclzXc-_WGL-1" target="MLj-OultrkclzXc-_WGL-8">
          <mxGeometry relative="1" as="geometry" />
        </mxCell>
        <mxCell id="MLj-OultrkclzXc-_WGL-16" value="fallback" style="edgeLabel;html=1;align=center;verticalAlign=middle;resizable=0;points=[];" vertex="1" connectable="0" parent="MLj-OultrkclzXc-_WGL-15">
          <mxGeometry x="-0.1829" y="-1" relative="1" as="geometry">
            <mxPoint as="offset" />
          </mxGeometry>
        </mxCell>
        <mxCell id="MLj-OultrkclzXc-_WGL-22" value="devices route" style="rounded=0;whiteSpace=wrap;html=1;" vertex="1" parent="1">
          <mxGeometry x="40" y="350" width="90" height="50" as="geometry" />
        </mxCell>
        <mxCell id="MLj-OultrkclzXc-_WGL-26" style="edgeStyle=orthogonalEdgeStyle;rounded=0;orthogonalLoop=1;jettySize=auto;html=1;entryX=0;entryY=0.5;entryDx=0;entryDy=0;" edge="1" parent="1" source="MLj-OultrkclzXc-_WGL-23" target="MLj-OultrkclzXc-_WGL-25">
          <mxGeometry relative="1" as="geometry" />
        </mxCell>
        <mxCell id="MLj-OultrkclzXc-_WGL-27" value="socks5" style="edgeLabel;html=1;align=center;verticalAlign=middle;resizable=0;points=[];" vertex="1" connectable="0" parent="MLj-OultrkclzXc-_WGL-26">
          <mxGeometry x="0.3887" y="1" relative="1" as="geometry">
            <mxPoint as="offset" />
          </mxGeometry>
        </mxCell>
        <mxCell id="MLj-OultrkclzXc-_WGL-28" value="oversea" style="edgeLabel;html=1;align=center;verticalAlign=middle;resizable=0;points=[];" vertex="1" connectable="0" parent="MLj-OultrkclzXc-_WGL-26">
          <mxGeometry x="-0.6109" y="-3" relative="1" as="geometry">
            <mxPoint as="offset" />
          </mxGeometry>
        </mxCell>
        <mxCell id="MLj-OultrkclzXc-_WGL-32" style="edgeStyle=orthogonalEdgeStyle;rounded=0;orthogonalLoop=1;jettySize=auto;html=1;entryX=0.5;entryY=0;entryDx=0;entryDy=0;" edge="1" parent="1" source="MLj-OultrkclzXc-_WGL-23" target="MLj-OultrkclzXc-_WGL-30">
          <mxGeometry relative="1" as="geometry" />
        </mxCell>
        <mxCell id="MLj-OultrkclzXc-_WGL-23" value="dae split traffic" style="rounded=1;whiteSpace=wrap;html=1;" vertex="1" parent="1">
          <mxGeometry x="384" y="350" width="160" height="60" as="geometry" />
        </mxCell>
        <mxCell id="MLj-OultrkclzXc-_WGL-24" style="edgeStyle=orthogonalEdgeStyle;rounded=0;orthogonalLoop=1;jettySize=auto;html=1;entryX=0.01;entryY=0.418;entryDx=0;entryDy=0;entryPerimeter=0;" edge="1" parent="1" source="MLj-OultrkclzXc-_WGL-22" target="MLj-OultrkclzXc-_WGL-23">
          <mxGeometry relative="1" as="geometry" />
        </mxCell>
        <mxCell id="MLj-OultrkclzXc-_WGL-25" value="mihomo: proxy&lt;div&gt;192.168.2.1:7897&lt;/div&gt;" style="rounded=1;whiteSpace=wrap;html=1;" vertex="1" parent="1">
          <mxGeometry x="730" y="330" width="120" height="60" as="geometry" />
        </mxCell>
        <mxCell id="MLj-OultrkclzXc-_WGL-30" value="DIRECT" style="rounded=1;whiteSpace=wrap;html=1;" vertex="1" parent="1">
          <mxGeometry x="404" y="480" width="120" height="60" as="geometry" />
        </mxCell>
      </root>
    </mxGraphModel>
  </diagram>
</mxfile>
